PathFileType        4      (X/Y/Z)      C:\Users\pc\Desktop\IMUTRC\Sujet_04\Sujet_04_Tpose.trc         
DataRate	CameraRate	NumFrames	NumMarkers	Units	OrigDataRate	OrigDataStartFrame	OrigNumFrames
60.0	60.0	4	64	mm	60.0	75	149
Frame#	Time	pHipOrigin			pRightASI			pLeftASI			pRightCSI			pLeftCSI			pRightIschialTub			pLeftIschialTub			pSacrum			pL5SpinalProcess			pL3SpinalProcess			pT12SpinalProcess			pIJ			pT4SpinalProcess			pT8SpinalProcess			pPX			pC7SpinalProcess			pTopOfHead			pRightAuricularis			pLeftAuricularis			pBackOfHead			pRightAcromion			pLeftAcromion			pRightArmLatEpicondyle			pRightArmMedEpicondyle			pLeftArmLatEpicondyle			pLeftArmMedEpicondyle			pRightUlnarStyloid			pRightRadialStyloid			pRightOlecranon			pLeftUlnarStyloid			pLeftRadialStyloid			pLeftOlecranon			pRightTopOfHand			pRightPinky			pRightBallHand			pLeftTopOfHand			pLeftPinky			pLeftBallHand			pRightGreaterTrochanter			pRightKneeLatEpicondyle			pRightKneeMedEpicondyle			pRightPatella			pLeftGreaterTrochanter			pLeftKneeLatEpicondyle			pLeftKneeMedEpicondyle			pLeftPatella			pRightTibialTub			pRightLatMalleolus			pRightMedMalleolus			pLeftTibialTub			pLeftLatMalleolus			pLeftMedMalleolus			pRightHeelFoot			pRightFirstMetatarsal			pRightFifthMetatarsal			pRightPivotFoot			pRightHeelCenter			pRightToe			pLeftHeelFoot			pLeftFirstMetatarsal			pLeftFifthMetatarsal			pLeftPivotFoot			pLeftHeelCenter			pLeftToe			
		X1	Y1	Z1	X2	Y2	Z2	X3	Y3	Z3	X4	Y4	Z4	X5	Y5	Z5	X6	Y6	Z6	X7	Y7	Z7	X8	Y8	Z8	X9	Y9	Z9	X10	Y10	Z10	X11	Y11	Z11	X12	Y12	Z12	X13	Y13	Z13	X14	Y14	Z14	X15	Y15	Z15	X16	Y16	Z16	X17	Y17	Z17	X18	Y18	Z18	X19	Y19	Z19	X20	Y20	Z20	X21	Y21	Z21	X22	Y22	Z22	X23	Y23	Z23	X24	Y24	Z24	X25	Y25	Z25	X26	Y26	Z26	X27	Y27	Z27	X28	Y28	Z28	X29	Y29	Z29	X30	Y30	Z30	X31	Y31	Z31	X32	Y32	Z32	X33	Y33	Z33	X34	Y34	Z34	X35	Y35	Z35	X36	Y36	Z36	X37	Y37	Z37	X38	Y38	Z38	X39	Y39	Z39	X40	Y40	Z40	X41	Y41	Z41	X42	Y42	Z42	X43	Y43	Z43	X44	Y44	Z44	X45	Y45	Z45	X46	Y46	Z46	X47	Y47	Z47	X48	Y48	Z48	X49	Y49	Z49	X50	Y50	Z50	X51	Y51	Z51	X52	Y52	Z52	X53	Y53	Z53	X54	Y54	Z54	X55	Y55	Z55	X56	Y56	Z56	X57	Y57	Z57	X58	Y58	Z58	X59	Y59	Z59	X60	Y60	Z60	X61	Y61	Z61	X62	Y62	Z62	X63	Y63	Z63	X64	Y64	Z64	
75	1.233	-42.35601	1006.83637	-745.0727899999999	31.14582	1115.35558	-599.8026599999998	29.0078	1112.11965	-893.6944099999998	-16.98863	1187.35502	-626.9035699999998	-18.72216	1184.75472	-867.5180499999999	-102.27849	946.33605	-683.8212599999999	-103.14526	945.00701	-804.1284999999999	-114.52879	1029.89237	-744.7838599999999	-74.48416	1128.18373	-745.6506299999999	-62.29164	1244.90834	-745.9973399999999	-62.34943	1352.04072	-745.5928499999999	102.6252	1568.73243	-750.4467399999999	-53.50841	1551.97494	-744.5527299999999	-62.23386	1459.05753	-744.8994299999999	95.97998	1441.37549	-751.1979399999999	-46.40092	1607.91029	-743.1658999999999	26.69642	1848.4092	-742.2991299999999	33.74612	1750.98461	-677.6383199999999	13.57935	1756.18521	-813.2584399999998	-29.64343	1755.14509	-737.4452399999999	-25.13624	1591.26837	-556.4643199999999	-42.47158	1571.73722	-939.5752699999999	28.2566	1455.70603	-281.6992299999999	71.47937	1412.19434	-308.6845699999999	41.89373	1468.88089	-1212.3179	99.38927	1444.90034	-1187.47059	84.19195	1375.50121	-45.53414999999991	83.20962	1427.79614	-33.283849999999916	48.48116	1409.82518	-301.1725899999999	124.81443	1411.9632	-1448.7719	103.89645	1459.69316	-1461.7734	78.52908	1434.15243	-1193.42239	120.48059	1398.84613	181.50098000000008	113.66203	1353.6009	86.67669000000008	107.19017	1379.71947	4.622760000000085	216.63393	1445.65154	-1654.08007	200.85877	1405.43356	-1558.10009	156.8848	1427.10273	-1487.02521	-41.77816	975.63277	-569.4658199999999	-84.53866	543.17389	-592.34847	-85.40543	541.20922	-676.54042	-37.84882	540.80473	-637.70926	-40.04463	973.55253	-920.6219699999999	-90.60603	541.84485	-900.45519	-95.45992	539.8224	-816.43659	-46.16978	538.66671	-853.01415	-28.37217	500.70232000000004	-636.78471	-122.6764	95.22878000000004	-591.94398	-123.36982	93.49525000000004	-658.22275	-36.11529	499.83555000000007	-853.47643	-123.25425	93.26411000000006	-903.17106	-127.1258	91.41501000000005	-837.00786	-168.38391	6.009580000000038	-621.12513	4.16048	4.115016720200785E-14	-672.03323	8.95659	1.329040000000036	-587.55236	30.45241	-0.11556999999996129	-632.27753	-125.85455	7.049700000000038	-623.55207	121.05844	-0.5200599999999609	-637.36256	-168.49948	3.004790000000053	-866.82464	5.48952	4.27605000000005	-820.59707	7.91647	-0.05777999999994458	-905.07795	30.68355	2.022460000000053	-860.98841	-125.97012	5.085030000000053	-865.66895	121.34736	1.1556900000000527	-858.27254	
76	1.25	-42.47158	1006.89416	-745.0727899999999	31.08804	1115.35558	-599.8026599999998	28.95001	1112.17744	-893.7521899999999	-17.04641	1187.4128	-626.9035699999998	-18.77995	1184.75472	-867.5180499999999	-102.33627	946.33605	-683.8212599999999	-103.20304	945.00701	-804.1284999999999	-114.58658	1029.95016	-744.8416499999998	-74.59973	1128.24152	-745.7084099999998	-62.34943	1244.90834	-745.9973399999999	-62.34943	1352.04072	-745.6506299999999	102.68298	1568.67465	-750.5623099999999	-53.39284	1552.03272	-744.5527299999999	-62.17608	1459.11532	-744.9572199999999	96.03777	1441.3177	-751.2557199999999	-46.28535	1607.91029	-743.2236799999998	26.81199	1848.4092	-742.2413499999999	33.80391	1750.98461	-677.6383199999999	13.7527	1756.18521	-813.3162299999999	-29.52786	1755.14509	-737.5030199999999	-24.96289	1591.38394	-556.5798899999999	-42.35601	1571.73722	-939.6330499999999	28.48774	1455.64825	-281.8147999999999	71.71051	1412.07877	-308.85791999999987	42.0093	1468.82311	-1212.37569	99.50483	1444.84256	-1187.52837	84.65423	1375.38564	-45.707509999999914	83.67189	1427.73836	-33.457199999999915	48.7123	1409.70961	-301.34593999999987	124.98778	1411.73206	-1448.71412	104.06981	1459.51981	-1461.7734	78.70243	1434.15243	-1193.42239	121.17401	1398.67278	181.32763000000008	114.29766	1353.48533	86.50333000000009	107.65244	1379.66169	4.449400000000084	216.80728	1445.30483	-1654.08007	201.08991	1405.14464	-1558.04231	157.05815	1426.87159	-1487.02521	-41.83595	975.63277	-569.4658199999999	-84.53866	543.23168	-592.40625	-85.40543	541.20922	-676.54042	-37.9066	540.80473	-637.70926	-40.10241	973.61031	-920.6797499999999	-90.66381	541.90264	-900.45519	-95.45992	539.8224	-816.43659	-46.16978	538.72449	-853.01415	-28.37217	500.7601000000001	-636.78471	-122.6764	95.22878000000004	-591.94398	-123.36982	93.49525000000004	-658.22275	-36.11529	499.83555000000007	-853.47643	-123.25425	93.32190000000006	-903.17106	-127.06802	91.47280000000006	-837.00786	-168.38391	6.067370000000039	-621.12513	4.16048	4.115016720200785E-14	-672.03323	8.95659	1.329040000000036	-587.55236	30.45241	-0.11556999999996129	-632.27753	-125.85455	7.049700000000038	-623.55207	121.05844	-0.5200599999999609	-637.36256	-168.49948	3.004790000000053	-866.82464	5.48952	4.27605000000005	-820.59707	7.91647	-0.05777999999994458	-905.07795	30.68355	2.0802400000000527	-860.98841	-125.97012	5.142820000000054	-865.66895	121.34736	1.1556900000000527	-858.27254	
77	1.267	-42.47158	1006.89416	-745.1305699999999	31.03025	1115.35558	-599.8604499999999	28.89223	1112.17744	-893.7521899999999	-17.1042	1187.4128	-626.9613599999999	-18.83773	1184.8125	-867.5758299999999	-102.33627	946.33605	-683.8790499999999	-103.26082	945.06479	-804.1862799999999	-114.64436	1029.95016	-744.8416499999998	-74.59973	1128.24152	-745.7084099999998	-62.34943	1244.90834	-746.0551199999999	-62.34943	1352.0985	-745.6506299999999	102.79855	1568.61686	-750.6200899999999	-53.33505	1552.03272	-744.6105099999999	-62.11829	1459.11532	-744.9572199999999	96.09555	1441.25992	-751.3135099999998	-46.16978	1607.96808	-743.2814699999999	26.92756	1848.4092	-742.2991299999999	33.86169	1750.98461	-677.6383199999999	13.92605	1756.18521	-813.3162299999999	-29.41229	1755.08731	-737.6185899999999	-24.78953	1591.38394	-556.5798899999999	-42.29822	1571.67944	-939.6330499999999	28.83444	1455.76382	-281.8725799999999	71.99943	1412.13655	-308.9157099999999	42.06708	1468.70754	-1212.37569	99.56262	1444.78477	-1187.52837	85.05872	1375.44342	-45.765289999999915	84.07638	1427.73836	-33.514979999999916	49.00122	1409.82518	-301.4037299999999	125.16113	1411.55871	-1448.71412	104.24316	1459.34646	-1461.7734	78.76021	1434.03686	-1193.42239	121.80963	1398.55721	181.2120600000001	114.75993	1353.42755	86.32998000000009	108.11472	1379.66169	4.333830000000084	217.0962	1445.07369	-1654.02229	201.32105	1404.9135	-1557.98452	157.23151	1426.69824	-1486.96743	-41.89373	975.63277	-569.5236099999998	-84.59644	543.23168	-592.40625	-85.46321	541.20922	-676.54042	-37.9066	540.80473	-637.76705	-40.10241	973.61031	-920.6797499999999	-90.66381	541.90264	-900.51297	-95.51771	539.8224	-816.49437	-46.22757	538.72449	-853.01415	-28.37217	500.7601000000001	-636.78471	-122.6764	95.22878000000004	-591.94398	-123.36982	93.49525000000004	-658.22275	-36.17307	499.8933400000001	-853.53421	-123.25425	93.32190000000006	-903.17106	-127.1258	91.47280000000006	-837.00786	-168.38391	6.067370000000039	-621.12513	4.16048	4.115016720200785E-14	-672.03323	8.95659	1.329040000000036	-587.55236	30.45241	-0.05777999999996128	-632.27753	-125.85455	7.049700000000038	-623.55207	121.05844	-0.5200599999999609	-637.36256	-168.49948	3.004790000000053	-866.82464	5.43174	4.27605000000005	-820.59707	7.91647	-0.05777999999994458	-905.07795	30.68355	2.0802400000000527	-860.98841	-125.97012	5.142820000000054	-865.66895	121.34736	1.1556900000000527	-858.27254	
78	1.283	-42.52936	1006.89416	-745.1305699999999	30.97247	1115.41337	-599.8604499999999	28.83444	1112.17744	-893.8099799999999	-17.16198	1187.4128	-626.9613599999999	-18.89552	1184.8125	-867.5758299999999	-102.39406	946.33605	-683.8790499999999	-103.26082	945.06479	-804.1862799999999	-114.64436	1029.95016	-744.8994299999999	-74.65752	1128.24152	-745.7661999999999	-62.34943	1244.96612	-746.0551199999999	-62.34943	1352.0985	-745.7084099999998	102.91412	1568.55908	-750.6200899999999	-53.21948	1552.09051	-744.6105099999999	-62.06051	1459.11532	-745.0149999999999	96.09555	1441.20214	-751.3712899999999	-46.05421	1607.96808	-743.2814699999999	27.04313	1848.4092	-742.3569199999998	33.97726	1750.98461	-677.6961099999999	14.09941	1756.18521	-813.3740099999999	-29.23894	1755.08731	-737.6763699999999	-24.61618	1591.44172	-556.6376699999998	-42.18265	1571.67944	-939.6908399999999	29.18115	1455.93717	-281.8725799999999	72.34614	1412.30991	-308.9157099999999	42.12487	1468.59197	-1212.37569	99.56262	1444.61142	-1187.52837	85.40543	1375.55899	-45.765289999999915	84.53866	1427.85393	-33.57276999999991	49.34793	1409.99853	-301.4037299999999	125.2767	1411.44314	-1448.71412	104.4743	1459.1731	-1461.7734	78.76021	1433.86351	-1193.48017	122.44526	1398.38385	181.09649000000007	115.22221	1353.36976	86.21441000000009	108.51921	1379.66169	4.276050000000084	217.38513	1444.90034	-1653.96451	201.4944	1404.74014	-1557.92674	157.40486	1426.52488	-1486.96743	-41.95152	975.63277	-569.5236099999998	-84.59644	543.23168	-592.46404	-85.46321	541.20922	-676.5982	-37.96439	540.80473	-637.76705	-40.1602	973.61031	-920.7375299999999	-90.7216	541.90264	-900.51297	-95.51771	539.8224	-816.49437	-46.28535	538.72449	-853.07194	-28.42995	500.7601000000001	-636.8425	-122.6764	95.22878000000004	-591.94398	-123.36982	93.49525000000004	-658.22275	-36.23085	499.8933400000001	-853.53421	-123.25425	93.32190000000006	-903.17106	-127.1258	91.47280000000006	-837.00786	-168.38391	6.067370000000039	-621.12513	4.16048	4.115016720200785E-14	-672.03323	8.95659	1.329040000000036	-587.55236	30.45241	-0.05777999999996128	-632.27753	-125.85455	7.049700000000038	-623.55207	121.05844	-0.5200599999999609	-637.36256	-168.49948	3.004790000000053	-866.82464	5.43174	4.27605000000005	-820.59707	7.91647	-0.05777999999994458	-905.07795	30.68355	2.0802400000000527	-860.98841	-125.97012	5.142820000000054	-865.66895	121.34736	1.1556900000000527	-858.27254	
